# xmcd CD database file
#
# Track frame offsets:
#	150
#	17665
#	40030
#	57385
#	76377
#	97575
#	127260
#	149010
#
# Disc length: 2209 seconds
#
# Revision: 3
# Processed by: cddbd v1.4PL0 Copyright (c) Steve Scherf et al.
# Submitted via: CDex 1.50Beta1
#
DISCID=66089f08
DTITLE=Various Artist - House Blend (Jazz In The Morning)
DYEAR=1900
DGENRE=Jazz
TTITLE0=Manhattan Underground (Scott Cossu)
TTITLE1=Happy Again (The Braxton Brothers)
TTITLE2=Amanda's Song (Tom Scott)
TTITLE3=Every Deep Dream (Philip Aaberg)
TTITLE4=Air Play (Ricky Petersen)
TTITLE5=Blue Kiss (Ray Obiedo)
TTITLE6=Before You Go (Earl Klugh)
TTITLE7=You Never Know (Jim Brickman)
EXTD=
EXTT0=
EXTT1=
EXTT2=
EXTT3=
EXTT4=
EXTT5=
EXTT6=
EXTT7=
PLAYORDER=
